<svg xmlns="http://www.w3.org/2000/svg" xmlns:xlink="http://www.w3.org/1999/xlink" width="500" zoomAndPan="magnify" viewBox="0 0 375 374.999991" height="500" preserveAspectRatio="xMidYMid meet" version="1.0"><defs><clipPath id="id1"><path d="M 56 49 L 238 49 L 238 327 L 56 327 Z M 56 49 " clip-rule="nonzero"/></clipPath><clipPath id="id2"><path d="M 122.09375 374.996094 L 6.375 106.089844 L 252.421875 0.207031 L 368.144531 269.113281 Z M 122.09375 374.996094 " clip-rule="nonzero"/></clipPath><clipPath id="id3"><path d="M 122.09375 374.996094 L 6.375 106.089844 L 252.421875 0.207031 L 368.144531 269.113281 Z M 122.09375 374.996094 " clip-rule="nonzero"/></clipPath><clipPath id="id4"><path d="M 158 50 L 282 50 L 282 101 L 158 101 Z M 158 50 " clip-rule="nonzero"/></clipPath><clipPath id="id5"><path d="M 122.09375 374.996094 L 6.375 106.089844 L 252.421875 0.207031 L 368.144531 269.113281 Z M 122.09375 374.996094 " clip-rule="nonzero"/></clipPath><clipPath id="id6"><path d="M 122.09375 374.996094 L 6.375 106.089844 L 252.421875 0.207031 L 368.144531 269.113281 Z M 122.09375 374.996094 " clip-rule="nonzero"/></clipPath><clipPath id="id7"><path d="M 259 77 L 287 77 L 287 149 L 259 149 Z M 259 77 " clip-rule="nonzero"/></clipPath><clipPath id="id8"><path d="M 259.558594 116.171875 L 288.757812 77.691406 L 331.898438 110.433594 L 302.699219 148.910156 Z M 259.558594 116.171875 " clip-rule="nonzero"/></clipPath><clipPath id="id9"><path d="M 148.25 143.636719 L 231.429688 34.035156 L 331.703125 110.132812 L 248.527344 219.734375 Z M 148.25 143.636719 " clip-rule="nonzero"/></clipPath><clipPath id="id10"><path d="M 276 85 L 309 85 L 309 140 L 276 140 Z M 276 85 " clip-rule="nonzero"/></clipPath><clipPath id="id11"><path d="M 259.558594 116.171875 L 288.757812 77.691406 L 331.898438 110.433594 L 302.699219 148.910156 Z M 259.558594 116.171875 " clip-rule="nonzero"/></clipPath><clipPath id="id12"><path d="M 148.25 143.636719 L 231.429688 34.035156 L 331.703125 110.132812 L 248.527344 219.734375 Z M 148.25 143.636719 " clip-rule="nonzero"/></clipPath></defs><g clip-path="url(#id1)"><g clip-path="url(#id2)"><g clip-path="url(#id3)"><path fill="#0976b2" d="M 73.132812 250.257812 C 78.824219 260.140625 84.636719 268.703125 89.582031 274.585938 C 119.125 309.417969 163.28125 328.625 209.1875 326.503906 C 218.5625 326.101562 234.074219 323.921875 237.132812 322.605469 C 237.957031 322.25 237.355469 320.722656 224.757812 291.449219 L 211.535156 260.71875 L 207.140625 260.9375 C 182.996094 262.164062 158.710938 251.984375 142.828125 233.921875 C 136.421875 226.652344 134.011719 222.789062 129.660156 212.675781 C 125.878906 203.757812 125.039062 201.003906 123.789062 192.613281 C 122.582031 184.601562 122.726562 173.703125 124.234375 165.851562 C 128.652344 142.167969 143.214844 122.011719 163.054688 111.976562 L 168.003906 109.441406 L 155.195312 79.28125 L 142.339844 49.136719 L 135.59375 52.445312 C 117.917969 61.089844 103.171875 72.796875 89.964844 88.621094 C 67.386719 115.683594 55.253906 151.507812 56.402344 187.722656 C 57.078125 208.410156 64.074219 234.558594 73.132812 250.257812 Z M 73.132812 250.257812 " fill-opacity="1" fill-rule="nonzero"/></g></g></g><g clip-path="url(#id4)"><g clip-path="url(#id5)"><g clip-path="url(#id6)"><path fill="#0976b2" d="M 171.671875 89.363281 C 171.976562 89.40625 173.878906 88.875 175.902344 88.234375 C 194.5625 81.875 211.917969 81.4375 231.859375 86.746094 C 238.550781 88.53125 248.261719 92.652344 255.460938 96.816406 C 258.96875 98.820312 262.054688 100.375 262.296875 100.273438 C 262.878906 100.019531 281.035156 74.976562 281.144531 74.296875 C 281.339844 72.886719 265.265625 64.128906 254.84375 59.96875 C 225.050781 48.066406 191.238281 47.285156 165.070312 57.855469 L 158.941406 60.320312 L 165.0625 74.804688 C 168.445312 82.800781 171.433594 89.347656 171.671875 89.363281 Z M 171.671875 89.363281 " fill-opacity="1" fill-rule="nonzero"/></g></g></g><g clip-path="url(#id7)"><g clip-path="url(#id8)"><g clip-path="url(#id9)"><path fill="#0976b2" d="M 187.925781 94.722656 C 185.203125 99.339844 183.046875 103.703125 181.785156 107.085938 C 174.382812 127.234375 176.75 149.742188 188.246094 168.023438 C 190.582031 171.765625 195.066406 177.605469 196.3125 178.550781 C 196.648438 178.804688 197.132812 178.203125 206.1875 166.273438 L 215.695312 153.746094 L 214.589844 152 C 208.496094 142.410156 207.035156 130.121094 210.746094 119.445312 C 212.234375 115.140625 213.257812 113.261719 216.386719 109.136719 C 219.15625 105.527344 220.089844 104.546875 223.230469 102.089844 C 226.230469 99.742188 230.71875 97.277344 234.277344 96.074219 C 244.988281 92.394531 256.605469 93.679688 265.300781 99.46875 L 267.484375 100.90625 L 276.851562 88.683594 L 286.203125 76.445312 L 283.289062 74.453125 C 275.660156 69.226562 267.457031 65.90625 257.929688 64.171875 C 241.632812 61.207031 224.171875 64.539062 209.628906 73.398438 C 201.324219 78.46875 192.25 87.386719 187.925781 94.722656 Z M 187.925781 94.722656 " fill-opacity="1" fill-rule="nonzero"/></g></g></g><g clip-path="url(#id10)"><g clip-path="url(#id11)"><g clip-path="url(#id12)"><path fill="#0976b2" d="M 276.542969 97.757812 C 276.597656 97.890625 277.253906 98.546875 277.984375 99.226562 C 284.90625 105.382812 289.105469 112.378906 291.550781 121.765625 C 292.371094 124.917969 292.933594 129.839844 292.898438 133.75 C 292.890625 135.648438 292.96875 137.269531 293.066406 137.347656 C 293.304688 137.527344 307.75 139.148438 308.054688 139.035156 C 308.675781 138.789062 308.535156 130.1875 307.824219 124.964844 C 305.792969 110.023438 298.28125 96.015625 287.902344 87.761719 L 285.476562 85.824219 L 280.96875 91.683594 C 278.480469 94.917969 276.496094 97.65625 276.542969 97.757812 Z M 276.542969 97.757812 " fill-opacity="1" fill-rule="nonzero"/></g></g></g><path fill="#0976b2" d="M 158.523438 172.128906 L 272.347656 172.128906 C 273.167969 172.128906 273.980469 172.210938 274.785156 172.371094 C 275.589844 172.53125 276.371094 172.765625 277.128906 173.082031 C 277.886719 173.394531 278.605469 173.777344 279.289062 174.234375 C 279.96875 174.691406 280.601562 175.207031 281.179688 175.789062 C 281.761719 176.367188 282.28125 177 282.734375 177.683594 C 283.191406 178.363281 283.574219 179.082031 283.890625 179.839844 C 284.203125 180.597656 284.441406 181.378906 284.601562 182.183594 C 284.761719 182.988281 284.839844 183.800781 284.839844 184.621094 C 284.839844 185.441406 284.761719 186.253906 284.601562 187.058594 C 284.441406 187.863281 284.203125 188.644531 283.890625 189.402344 C 283.574219 190.160156 283.191406 190.882812 282.734375 191.5625 C 282.28125 192.246094 281.761719 192.875 281.179688 193.457031 C 280.601562 194.035156 279.96875 194.554688 279.289062 195.011719 C 278.605469 195.464844 277.886719 195.851562 277.128906 196.164062 C 276.371094 196.480469 275.589844 196.714844 274.785156 196.875 C 273.980469 197.035156 273.167969 197.117188 272.347656 197.117188 L 158.523438 197.117188 C 157.703125 197.117188 156.890625 197.035156 156.085938 196.875 C 155.28125 196.714844 154.5 196.480469 153.742188 196.164062 C 152.984375 195.851562 152.261719 195.464844 151.582031 195.011719 C 150.898438 194.554688 150.269531 194.035156 149.6875 193.457031 C 149.109375 192.875 148.589844 192.246094 148.132812 191.5625 C 147.679688 190.882812 147.292969 190.160156 146.980469 189.402344 C 146.664062 188.644531 146.429688 187.863281 146.269531 187.058594 C 146.109375 186.253906 146.027344 185.441406 146.027344 184.621094 C 146.027344 183.800781 146.109375 182.988281 146.269531 182.183594 C 146.429688 181.378906 146.664062 180.597656 146.980469 179.839844 C 147.292969 179.082031 147.679688 178.363281 148.132812 177.683594 C 148.589844 177 149.109375 176.367188 149.6875 175.789062 C 150.269531 175.207031 150.898438 174.691406 151.582031 174.234375 C 152.261719 173.777344 152.984375 173.394531 153.742188 173.082031 C 154.5 172.765625 155.28125 172.53125 156.085938 172.371094 C 156.890625 172.210938 157.703125 172.128906 158.523438 172.128906 Z M 158.523438 172.128906 " fill-opacity="1" fill-rule="nonzero"/><path fill="#6ce5e8" d="M 158.523438 172.128906 L 226.539062 172.128906 C 227.359375 172.128906 228.171875 172.210938 228.976562 172.371094 C 229.78125 172.53125 230.5625 172.765625 231.320312 173.082031 C 232.078125 173.394531 232.796875 173.777344 233.480469 174.234375 C 234.164062 174.691406 234.792969 175.207031 235.375 175.789062 C 235.953125 176.367188 236.472656 177 236.925781 177.683594 C 237.382812 178.363281 237.769531 179.082031 238.082031 179.839844 C 238.394531 180.597656 238.632812 181.378906 238.792969 182.183594 C 238.953125 182.988281 239.03125 183.800781 239.03125 184.621094 C 239.03125 185.441406 238.953125 186.253906 238.792969 187.058594 C 238.632812 187.863281 238.394531 188.644531 238.082031 189.402344 C 237.769531 190.160156 237.382812 190.882812 236.925781 191.5625 C 236.472656 192.246094 235.953125 192.875 235.375 193.457031 C 234.792969 194.035156 234.164062 194.554688 233.480469 195.011719 C 232.796875 195.464844 232.078125 195.851562 231.320312 196.164062 C 230.5625 196.480469 229.78125 196.714844 228.976562 196.875 C 228.171875 197.035156 227.359375 197.117188 226.539062 197.117188 L 158.523438 197.117188 C 157.703125 197.117188 156.890625 197.035156 156.085938 196.875 C 155.28125 196.714844 154.5 196.480469 153.742188 196.164062 C 152.984375 195.851562 152.261719 195.464844 151.582031 195.011719 C 150.898438 194.554688 150.269531 194.035156 149.6875 193.457031 C 149.109375 192.875 148.589844 192.246094 148.132812 191.5625 C 147.679688 190.882812 147.292969 190.160156 146.980469 189.402344 C 146.664062 188.644531 146.429688 187.863281 146.269531 187.058594 C 146.109375 186.253906 146.027344 185.441406 146.027344 184.621094 C 146.027344 183.800781 146.109375 182.988281 146.269531 182.183594 C 146.429688 181.378906 146.664062 180.597656 146.980469 179.839844 C 147.292969 179.082031 147.679688 178.363281 148.132812 177.683594 C 148.589844 177 149.109375 176.367188 149.6875 175.789062 C 150.269531 175.207031 150.898438 174.691406 151.582031 174.234375 C 152.261719 173.777344 152.984375 173.394531 153.742188 173.082031 C 154.5 172.765625 155.28125 172.53125 156.085938 172.371094 C 156.890625 172.210938 157.703125 172.128906 158.523438 172.128906 Z M 158.523438 172.128906 " fill-opacity="1" fill-rule="nonzero"/></svg>