<svg xmlns="http://www.w3.org/2000/svg" xmlns:xlink="http://www.w3.org/1999/xlink" zoomAndPan="magnify" preserveAspectRatio="xMidYMid meet" version="1.0" viewBox="33.48 92.87 327.12 186.12"><defs><g/><clipPath id="id1"><path d="M 33 92 L 155 92 L 155 279 L 33 279 Z M 33 92 " clip-rule="nonzero"/></clipPath><clipPath id="id2"><path d="M 77.59375 311.375 L 0 131.066406 L 164.984375 60.070312 L 242.574219 240.375 Z M 77.59375 311.375 " clip-rule="nonzero"/></clipPath><clipPath id="id3"><path d="M 77.59375 311.375 L 0 131.066406 L 164.984375 60.070312 L 242.574219 240.375 Z M 77.59375 311.375 " clip-rule="nonzero"/></clipPath><clipPath id="id4"><path d="M 102 93 L 185 93 L 185 128 L 102 128 Z M 102 93 " clip-rule="nonzero"/></clipPath><clipPath id="id5"><path d="M 77.59375 311.375 L 0 131.066406 L 164.984375 60.070312 L 242.574219 240.375 Z M 77.59375 311.375 " clip-rule="nonzero"/></clipPath><clipPath id="id6"><path d="M 77.59375 311.375 L 0 131.066406 L 164.984375 60.070312 L 242.574219 240.375 Z M 77.59375 311.375 " clip-rule="nonzero"/></clipPath><clipPath id="id7"><path d="M 169 112 L 188 112 L 188 160 L 169 160 Z M 169 112 " clip-rule="nonzero"/></clipPath><clipPath id="id8"><path d="M 169.765625 137.828125 L 189.347656 112.027344 L 218.273438 133.980469 L 198.695312 159.777344 Z M 169.765625 137.828125 " clip-rule="nonzero"/></clipPath><clipPath id="id9"><path d="M 95.132812 156.242188 L 150.90625 82.75 L 218.140625 133.777344 L 162.371094 207.269531 Z M 95.132812 156.242188 " clip-rule="nonzero"/></clipPath><clipPath id="id10"><path d="M 181 117 L 203 117 L 203 154 L 181 154 Z M 181 117 " clip-rule="nonzero"/></clipPath><clipPath id="id11"><path d="M 169.765625 137.828125 L 189.347656 112.027344 L 218.273438 133.980469 L 198.695312 159.777344 Z M 169.765625 137.828125 " clip-rule="nonzero"/></clipPath><clipPath id="id12"><path d="M 95.132812 156.242188 L 150.90625 82.75 L 218.140625 133.777344 L 162.371094 207.269531 Z M 95.132812 156.242188 " clip-rule="nonzero"/></clipPath></defs><g fill="#0976b2" fill-opacity="1"><g transform="translate(211.016303, 217.827293)"><g><path d="M 24.925781 -37.390625 L 0 -37.390625 L 0 -24.925781 L 24.925781 -24.925781 Z M 24.925781 -37.390625 "/></g></g></g><g fill="#0976b2" fill-opacity="1"><g transform="translate(248.404112, 217.827293)"><g><path d="M 49.851562 -62.316406 L 12.464844 -62.316406 L 12.464844 -49.851562 L 49.851562 -49.851562 Z M 12.464844 -49.851562 L 0 -49.851562 L 0 -12.464844 L 12.464844 -12.464844 Z M 49.851562 -12.464844 L 12.464844 -12.464844 L 12.464844 0 L 49.851562 0 Z M 49.851562 -12.464844 "/></g></g></g><g fill="#0976b2" fill-opacity="1"><g transform="translate(310.717131, 217.827293)"><g><path d="M 37.390625 -62.316406 L 0 -62.316406 L 0 0 L 12.464844 0 L 12.464844 -24.925781 L 24.925781 -24.925781 L 24.925781 -12.464844 L 37.390625 -12.464844 L 37.390625 -37.390625 L 12.464844 -37.390625 L 12.464844 -49.851562 L 37.390625 -49.851562 Z M 49.851562 -49.851562 L 37.390625 -49.851562 L 37.390625 -37.390625 L 49.851562 -37.390625 Z M 49.851562 -12.464844 L 37.390625 -12.464844 L 37.390625 0 L 49.851562 0 Z M 49.851562 -12.464844 "/></g></g></g><g clip-path="url(#id1)"><g clip-path="url(#id2)"><g clip-path="url(#id3)"><path fill="#0976b2" d="M 44.765625 227.734375 C 48.578125 234.359375 52.476562 240.101562 55.796875 244.046875 C 75.601562 267.402344 105.210938 280.28125 135.992188 278.859375 C 142.277344 278.589844 152.679688 277.128906 154.730469 276.246094 C 155.28125 276.007812 154.878906 274.984375 146.433594 255.355469 L 137.566406 234.75 L 134.621094 234.894531 C 118.429688 235.71875 102.148438 228.890625 91.5 216.78125 C 87.203125 211.90625 85.585938 209.316406 82.667969 202.535156 C 80.132812 196.554688 79.570312 194.710938 78.730469 189.082031 C 77.921875 183.710938 78.019531 176.402344 79.03125 171.136719 C 81.992188 155.257812 91.757812 141.742188 105.058594 135.011719 L 108.378906 133.3125 L 99.789062 113.089844 L 91.167969 92.878906 L 86.648438 95.097656 C 74.792969 100.890625 64.90625 108.742188 56.050781 119.351562 C 40.914062 137.5 32.777344 161.519531 33.546875 185.804688 C 34 199.675781 38.691406 217.207031 44.765625 227.734375 Z M 44.765625 227.734375 " fill-opacity="1" fill-rule="nonzero"/></g></g></g><g clip-path="url(#id4)"><g clip-path="url(#id5)"><g clip-path="url(#id6)"><path fill="#0976b2" d="M 110.835938 119.851562 C 111.042969 119.878906 112.316406 119.523438 113.675781 119.09375 C 126.1875 114.832031 137.824219 114.535156 151.195312 118.097656 C 155.683594 119.292969 162.191406 122.058594 167.019531 124.847656 C 169.371094 126.195312 171.441406 127.234375 171.605469 127.164062 C 171.992188 126.996094 184.167969 110.203125 184.238281 109.75 C 184.375 108.800781 173.59375 102.929688 166.605469 100.140625 C 146.628906 92.160156 123.957031 91.636719 106.414062 98.722656 L 102.300781 100.378906 L 106.40625 110.089844 C 108.671875 115.449219 110.679688 119.84375 110.835938 119.851562 Z M 110.835938 119.851562 " fill-opacity="1" fill-rule="nonzero"/></g></g></g><g clip-path="url(#id7)"><g clip-path="url(#id8)"><g clip-path="url(#id9)"><path fill="#0976b2" d="M 121.738281 123.445312 C 119.910156 126.542969 118.464844 129.464844 117.621094 131.734375 C 112.652344 145.246094 114.242188 160.335938 121.953125 172.59375 C 123.519531 175.101562 126.523438 179.019531 127.359375 179.652344 C 127.585938 179.824219 127.910156 179.421875 133.980469 171.421875 L 140.355469 163.023438 L 139.613281 161.851562 C 135.527344 155.421875 134.550781 147.179688 137.039062 140.019531 C 138.035156 137.136719 138.722656 135.875 140.820312 133.109375 C 142.679688 130.6875 143.300781 130.03125 145.410156 128.382812 C 147.417969 126.808594 150.429688 125.15625 152.816406 124.351562 C 159.996094 121.882812 167.785156 122.746094 173.617188 126.628906 L 175.082031 127.59375 L 181.363281 119.394531 L 187.632812 111.191406 L 185.679688 109.855469 C 180.566406 106.347656 175.066406 104.121094 168.675781 102.960938 C 157.75 100.972656 146.039062 103.207031 136.289062 109.148438 C 130.71875 112.542969 124.636719 118.523438 121.738281 123.445312 Z M 121.738281 123.445312 " fill-opacity="1" fill-rule="nonzero"/></g></g></g><g clip-path="url(#id10)"><g clip-path="url(#id11)"><g clip-path="url(#id12)"><path fill="#0976b2" d="M 181.15625 125.480469 C 181.191406 125.570312 181.632812 126.007812 182.125 126.464844 C 186.765625 130.59375 189.578125 135.285156 191.21875 141.578125 C 191.769531 143.691406 192.144531 146.992188 192.121094 149.613281 C 192.117188 150.886719 192.167969 151.972656 192.234375 152.023438 C 192.394531 152.144531 202.082031 153.234375 202.285156 153.15625 C 202.703125 152.992188 202.609375 147.226562 202.132812 143.722656 C 200.769531 133.703125 195.734375 124.3125 188.773438 118.777344 L 187.144531 117.480469 L 184.121094 121.40625 C 182.457031 123.574219 181.125 125.414062 181.15625 125.480469 Z M 181.15625 125.480469 " fill-opacity="1" fill-rule="nonzero"/></g></g></g><path fill="#0976b2" d="M 102.019531 175.347656 L 178.34375 175.347656 C 178.894531 175.347656 179.4375 175.402344 179.976562 175.507812 C 180.515625 175.617188 181.039062 175.773438 181.546875 175.984375 C 182.054688 176.195312 182.539062 176.453125 182.996094 176.757812 C 183.453125 177.066406 183.878906 177.414062 184.265625 177.800781 C 184.65625 178.191406 185.003906 178.613281 185.308594 179.070312 C 185.613281 179.527344 185.871094 180.011719 186.082031 180.519531 C 186.292969 181.027344 186.453125 181.550781 186.558594 182.089844 C 186.664062 182.628906 186.71875 183.175781 186.71875 183.722656 C 186.71875 184.273438 186.664062 184.820312 186.558594 185.359375 C 186.453125 185.898438 186.292969 186.421875 186.082031 186.929688 C 185.871094 187.4375 185.613281 187.921875 185.308594 188.378906 C 185.003906 188.835938 184.65625 189.257812 184.265625 189.648438 C 183.878906 190.035156 183.453125 190.382812 182.996094 190.691406 C 182.539062 190.996094 182.054688 191.253906 181.546875 191.464844 C 181.039062 191.675781 180.515625 191.832031 179.976562 191.941406 C 179.4375 192.046875 178.894531 192.101562 178.34375 192.101562 L 102.019531 192.101562 C 101.46875 192.101562 100.925781 192.046875 100.386719 191.941406 C 99.847656 191.832031 99.324219 191.675781 98.816406 191.464844 C 98.304688 191.253906 97.824219 190.996094 97.367188 190.691406 C 96.910156 190.382812 96.484375 190.035156 96.097656 189.648438 C 95.707031 189.257812 95.359375 188.835938 95.054688 188.378906 C 94.75 187.921875 94.492188 187.4375 94.28125 186.929688 C 94.070312 186.421875 93.910156 185.898438 93.804688 185.359375 C 93.695312 184.820312 93.644531 184.273438 93.644531 183.722656 C 93.644531 183.175781 93.695312 182.628906 93.804688 182.089844 C 93.910156 181.550781 94.070312 181.027344 94.28125 180.519531 C 94.492188 180.011719 94.75 179.527344 95.054688 179.070312 C 95.359375 178.613281 95.707031 178.191406 96.097656 177.800781 C 96.484375 177.414062 96.910156 177.066406 97.367188 176.757812 C 97.824219 176.453125 98.304688 176.195312 98.816406 175.984375 C 99.324219 175.773438 99.847656 175.617188 100.386719 175.507812 C 100.925781 175.402344 101.46875 175.347656 102.019531 175.347656 Z M 102.019531 175.347656 " fill-opacity="1" fill-rule="nonzero"/><path fill="#6ce5e8" d="M 102.019531 175.347656 L 147.628906 175.347656 C 148.175781 175.347656 148.722656 175.402344 149.261719 175.507812 C 149.800781 175.617188 150.324219 175.773438 150.832031 175.984375 C 151.339844 176.195312 151.824219 176.453125 152.28125 176.757812 C 152.738281 177.066406 153.160156 177.414062 153.550781 177.800781 C 153.941406 178.191406 154.289062 178.613281 154.59375 179.070312 C 154.898438 179.527344 155.15625 180.011719 155.367188 180.519531 C 155.578125 181.027344 155.734375 181.550781 155.84375 182.089844 C 155.949219 182.628906 156.003906 183.175781 156.003906 183.722656 C 156.003906 184.273438 155.949219 184.820312 155.84375 185.359375 C 155.734375 185.898438 155.578125 186.421875 155.367188 186.929688 C 155.15625 187.4375 154.898438 187.921875 154.59375 188.378906 C 154.289062 188.835938 153.941406 189.257812 153.550781 189.648438 C 153.160156 190.035156 152.738281 190.382812 152.28125 190.691406 C 151.824219 190.996094 151.339844 191.253906 150.832031 191.464844 C 150.324219 191.675781 149.800781 191.832031 149.261719 191.941406 C 148.722656 192.046875 148.175781 192.101562 147.628906 192.101562 L 102.019531 192.101562 C 101.46875 192.101562 100.925781 192.046875 100.386719 191.941406 C 99.847656 191.832031 99.324219 191.675781 98.816406 191.464844 C 98.304688 191.253906 97.824219 190.996094 97.367188 190.691406 C 96.910156 190.382812 96.484375 190.035156 96.097656 189.648438 C 95.707031 189.257812 95.359375 188.835938 95.054688 188.378906 C 94.75 187.921875 94.492188 187.4375 94.28125 186.929688 C 94.070312 186.421875 93.910156 185.898438 93.804688 185.359375 C 93.695312 184.820312 93.644531 184.273438 93.644531 183.722656 C 93.644531 183.175781 93.695312 182.628906 93.804688 182.089844 C 93.910156 181.550781 94.070312 181.027344 94.28125 180.519531 C 94.492188 180.011719 94.75 179.527344 95.054688 179.070312 C 95.359375 178.613281 95.707031 178.191406 96.097656 177.800781 C 96.484375 177.414062 96.910156 177.066406 97.367188 176.757812 C 97.824219 176.453125 98.304688 176.195312 98.816406 175.984375 C 99.324219 175.773438 99.847656 175.617188 100.386719 175.507812 C 100.925781 175.402344 101.46875 175.347656 102.019531 175.347656 Z M 102.019531 175.347656 " fill-opacity="1" fill-rule="nonzero"/></svg>